<svg width="395" height="354" viewBox="0 0 395 354" fill="none" xmlns="http://www.w3.org/2000/svg">
<g style="mix-blend-mode:hard-light" filter="url(#filter0_f_3548_2964)">
<path d="M59.8229 69.3735V69.3742C59.8229 116.989 74.3642 154.244 90.8335 181.742C94.3343 187.588 101.151 193.547 110.768 199.256C120.283 204.903 132.036 210.012 144.762 214.379C170.244 223.123 198.944 228.663 219.974 229.771L225.49 230.062V235.586V289.305C225.49 289.305 225.49 289.305 225.49 289.305C225.49 290.42 225.779 291.46 226.257 292.29C226.732 293.116 227.335 293.636 227.893 293.91C228.436 294.176 228.974 294.232 229.48 294.127C229.997 294.02 230.594 293.718 231.148 293.111L231.149 293.111L333.814 180.807C334.199 180.386 334.544 179.835 334.793 179.17C335.041 178.504 335.177 177.764 335.177 177C335.177 176.236 335.041 175.496 334.793 174.83C334.544 174.165 334.199 173.614 333.814 173.193L231.149 60.8893L231.148 60.8884C230.594 60.2821 229.997 59.9798 229.48 59.8726C228.974 59.7675 228.436 59.8244 227.893 60.0904C227.335 60.3639 226.732 60.8842 226.257 61.7102C225.779 62.5397 225.49 63.5798 225.49 64.6948C225.49 64.6949 225.49 64.6951 225.49 64.6952L225.49 118.02V124.048L219.466 123.839C205.842 123.367 196.989 121.378 189.348 117.736C183.7 115.044 178.766 111.423 173.378 107.468C171.801 106.311 170.186 105.125 168.501 103.925C159.503 97.5147 155.852 88.9344 153.787 81.6248C153.152 79.3744 152.595 76.9422 152.116 74.8497C151.871 73.7761 151.646 72.792 151.441 71.9677C150.733 69.1219 150.136 67.537 149.522 66.636C149.512 66.6213 149.504 66.6115 149.478 66.5879C149.443 66.5566 149.356 66.4862 149.16 66.366C148.948 66.2356 148.689 66.0948 148.266 65.8733C148.219 65.8489 148.17 65.8232 148.118 65.7962C147.88 65.6721 147.591 65.5212 147.284 65.3542C147.054 65.2737 146.841 65.1981 146.638 65.1259C146.021 64.9067 145.495 64.7198 144.845 64.5285C143.939 64.2619 143.345 64.1699 142.981 64.1663L61.7357 65.0673C61.3663 65.34 60.999 65.7237 60.6782 66.2392C60.1498 67.0882 59.8228 68.1854 59.8229 69.3735Z" stroke="#F32E7C" stroke-width="11.6458"/>
</g>
<g style="mix-blend-mode:hard-light" filter="url(#filter1_f_3548_2964)">
<path d="M61.6145 69.3733V69.3742C61.6145 116.604 76.0336 153.544 92.3705 180.822C95.6486 186.295 102.171 192.069 111.683 197.715C121.06 203.281 132.692 208.343 145.343 212.684C170.685 221.38 199.221 226.883 220.068 227.982L227.282 228.362V235.586V289.304C227.282 289.305 227.282 289.305 227.282 289.305C227.282 290.119 227.494 290.849 227.809 291.395C228.122 291.938 228.469 292.196 228.681 292.301C228.874 292.395 229.008 292.396 229.116 292.373C229.239 292.348 229.507 292.251 229.825 291.903L229.826 291.902L332.492 179.598C332.714 179.355 332.942 179.005 333.114 178.543C333.286 178.082 333.385 177.554 333.385 177C333.385 176.446 333.286 175.918 333.114 175.456C332.942 174.995 332.714 174.645 332.492 174.401L229.826 62.0982L229.825 62.097C229.507 61.7492 229.239 61.6523 229.116 61.6269C229.008 61.6043 228.874 61.6047 228.681 61.6992C228.469 61.8035 228.122 62.062 227.809 62.6044C227.494 63.1513 227.282 63.8811 227.282 64.6948C227.282 64.695 227.282 64.6952 227.282 64.6954L227.282 118.02V125.903L219.404 125.63C205.627 125.153 196.511 123.135 188.577 119.354C182.761 116.581 177.644 112.824 172.23 108.849C170.673 107.706 169.092 106.545 167.462 105.384C157.99 98.6368 154.18 89.6064 152.063 82.1118C151.417 79.825 150.835 77.2809 150.349 75.1598C150.108 74.1082 149.891 73.1606 149.702 72.3999C149.072 69.8662 148.576 68.5544 148.18 67.8665C148.028 67.7759 147.819 67.6619 147.435 67.4606C147.39 67.4374 147.343 67.4124 147.292 67.3858C147.086 67.2785 146.83 67.1448 146.552 66.9949C146.409 66.9445 146.266 66.894 146.131 66.8463C145.951 66.7824 145.784 66.7235 145.65 66.6766C145.162 66.5062 144.737 66.3645 144.339 66.2473C143.524 66.0074 143.112 65.9618 142.977 65.9581L62.4406 66.8512C62.3607 66.9463 62.2795 67.057 62.1993 67.1858C61.8556 67.7381 61.6144 68.5049 61.6145 69.3733Z" stroke="#FF26C2" stroke-width="15.2291"/>
</g>
<g style="mix-blend-mode:hard-light" filter="url(#filter2_ddi_3548_2964)">
<path d="M59.8229 69.3735V69.3742C59.8229 116.989 74.3642 154.244 90.8335 181.742C94.3343 187.588 101.151 193.547 110.768 199.256C120.283 204.903 132.036 210.012 144.762 214.379C170.244 223.123 198.944 228.663 219.974 229.771L225.49 230.062V235.586V289.305C225.49 289.305 225.49 289.305 225.49 289.305C225.49 290.42 225.779 291.46 226.257 292.29C226.732 293.116 227.335 293.636 227.893 293.91C228.436 294.176 228.974 294.232 229.48 294.127C229.997 294.02 230.594 293.718 231.148 293.111L231.149 293.111L333.814 180.807C334.199 180.386 334.544 179.835 334.793 179.17C335.041 178.504 335.177 177.764 335.177 177C335.177 176.236 335.041 175.496 334.793 174.83C334.544 174.165 334.199 173.614 333.814 173.193L231.149 60.8893L231.148 60.8884C230.594 60.2821 229.997 59.9798 229.48 59.8726C228.974 59.7675 228.436 59.8244 227.893 60.0904C227.335 60.3639 226.732 60.8842 226.257 61.7102C225.779 62.5397 225.49 63.5798 225.49 64.6948C225.49 64.6949 225.49 64.6951 225.49 64.6952L225.49 118.02V124.048L219.466 123.839C205.842 123.367 196.989 121.378 189.348 117.736C183.7 115.044 178.766 111.423 173.378 107.468C171.801 106.311 170.186 105.125 168.501 103.925C159.503 97.5147 155.852 88.9344 153.787 81.6248C153.152 79.3744 152.595 76.9422 152.116 74.8497C151.871 73.7761 151.646 72.792 151.441 71.9677C150.733 69.1219 150.136 67.537 149.522 66.636C149.512 66.6213 149.504 66.6115 149.478 66.5879C149.443 66.5566 149.356 66.4862 149.16 66.366C148.948 66.2356 148.689 66.0948 148.266 65.8733C148.219 65.8489 148.17 65.8232 148.118 65.7962C147.88 65.6721 147.591 65.5212 147.284 65.3542C147.054 65.2737 146.841 65.1981 146.638 65.1259C146.021 64.9067 145.495 64.7198 144.845 64.5285C143.939 64.2619 143.345 64.1699 142.981 64.1663L61.7357 65.0673C61.3663 65.34 60.999 65.7237 60.6782 66.2392C60.1498 67.0882 59.8228 68.1854 59.8229 69.3735Z" stroke="#FB37FF" stroke-opacity="0.2" stroke-width="11.6458"/>
</g>
<g filter="url(#filter3_f_3548_2964)">
<path d="M57.5833 69.3738V69.3742C57.5833 117.47 72.2775 155.118 88.9121 182.893C92.6914 189.203 99.8762 195.395 109.625 201.182C119.311 206.931 131.215 212.098 144.035 216.497C169.693 225.302 198.597 230.887 219.856 232.007L223.25 232.186V235.586V289.305C223.25 289.305 223.25 289.305 223.25 289.305C223.251 290.797 223.635 292.225 224.316 293.407C224.996 294.588 225.917 295.435 226.907 295.92C227.887 296.401 228.932 296.528 229.935 296.32C230.945 296.111 231.952 295.552 232.801 294.622L232.802 294.622L335.468 182.317C335.468 182.317 335.468 182.317 335.469 182.317C336.056 181.673 336.547 180.873 336.891 179.953C337.235 179.032 337.417 178.026 337.417 177C337.417 175.974 337.235 174.968 336.891 174.047C336.547 173.127 336.056 172.327 335.469 171.683C335.468 171.683 335.468 171.683 335.468 171.682L232.802 59.3782L232.801 59.3777C231.952 58.4482 230.945 57.8891 229.935 57.6797C228.932 57.4716 227.887 57.5989 226.907 58.0794C225.917 58.5645 224.996 59.4119 224.316 60.5926C223.635 61.7753 223.251 63.2031 223.25 64.6948C223.25 64.6949 223.25 64.695 223.25 64.6951L223.25 118.02V121.729L219.543 121.601C206.112 121.136 197.587 119.182 190.312 115.715C184.873 113.122 180.167 109.67 174.816 105.743C173.214 104.568 171.555 103.351 169.801 102.101C161.394 96.1121 157.942 88.0944 155.943 81.016C155.319 78.8098 154.794 76.5116 154.325 74.4583C154.074 73.3609 153.839 72.3334 153.614 71.4274C152.904 68.5711 152.232 66.6365 151.373 65.3748C151.148 65.0453 150.858 64.7807 150.333 64.4577C150.048 64.2831 149.729 64.1113 149.304 63.8891C149.255 63.8633 149.204 63.8367 149.151 63.8092C148.868 63.6609 148.538 63.4889 148.198 63.3009C147.928 63.2081 147.666 63.1165 147.411 63.0274C145.682 62.4229 144.275 61.931 142.976 61.9266C142.97 61.9266 142.965 61.9266 142.959 61.9266L61.087 62.8348C60.2184 63.297 59.4085 64.0407 58.7767 65.0559C58.0176 66.2757 57.5831 67.7861 57.5833 69.3738Z" stroke="#FB37FF" stroke-width="7.16663"/>
</g>
<g filter="url(#filter4_f_3548_2964)">
<path d="M234.124 295.831L336.791 183.526C336.791 183.526 336.791 183.526 336.791 183.525C337.541 182.704 338.15 181.704 338.569 180.579C338.989 179.454 339.208 178.236 339.208 177C339.208 175.764 338.989 174.546 338.569 173.42C338.15 172.296 337.541 171.295 336.791 170.474C336.791 170.474 336.791 170.474 336.791 170.474L234.124 58.1693L234.124 58.1691C233.038 56.9811 231.703 56.2166 230.299 55.9254C228.898 55.6348 227.449 55.8185 226.119 56.4706C224.784 57.125 223.607 58.2341 222.763 59.6984C221.919 61.1638 221.459 62.9019 221.459 64.6949L221.459 118.02V119.874L219.605 119.81C206.327 119.35 198.066 117.426 191.082 114.097C185.811 111.585 181.286 108.266 175.968 104.365C174.347 103.176 172.652 101.933 170.84 100.642C162.907 94.99 159.614 87.4223 157.667 80.529C157.053 78.3572 156.552 76.1616 156.091 74.1422C155.837 73.0284 155.595 71.9681 155.353 70.9951C154.641 68.1305 153.91 65.9161 152.853 64.3659C152.442 63.7623 151.932 63.3377 151.27 62.931C150.929 62.7211 150.561 62.5244 150.135 62.3018C150.084 62.2749 150.032 62.2475 149.978 62.2197C149.652 62.0491 149.293 61.8617 148.929 61.6577C148.65 61.5618 148.37 61.4631 148.089 61.3643C146.352 60.7533 144.602 60.1373 142.968 60.1349C142.965 60.1349 142.962 60.1349 142.959 60.1349L60.6646 61.0477C59.3299 61.6465 58.1356 62.6952 57.2556 64.1092C56.3119 65.6257 55.7914 67.4667 55.7917 69.374C55.7917 117.855 70.6081 155.818 87.375 183.814C91.3771 190.496 98.8563 196.873 108.711 202.723C118.534 208.553 130.559 213.767 143.453 218.192C169.251 227.044 198.32 232.666 219.761 233.797L221.459 233.886V235.586V289.305C221.459 291.098 221.919 292.836 222.763 294.301C223.607 295.766 224.784 296.875 226.119 297.529C227.449 298.181 228.898 298.365 230.299 298.075C231.703 297.783 233.038 297.019 234.124 295.831L234.124 295.831Z" stroke="white" stroke-width="3.58332"/>
</g>
<defs>
<filter id="filter0_f_3548_2964" x="0.250267" y="0.250267" width="394.499" height="353.499" filterUnits="userSpaceOnUse" color-interpolation-filters="sRGB">
<feFlood flood-opacity="0" result="BackgroundImageFix"/>
<feBlend mode="normal" in="SourceGraphic" in2="BackgroundImageFix" result="shape"/>
<feGaussianBlur stdDeviation="26.8749" result="effect1_foregroundBlur_3548_2964"/>
</filter>
<filter id="filter1_f_3548_2964" x="36.0834" y="36.0834" width="322.833" height="281.833" filterUnits="userSpaceOnUse" color-interpolation-filters="sRGB">
<feFlood flood-opacity="0" result="BackgroundImageFix"/>
<feBlend mode="normal" in="SourceGraphic" in2="BackgroundImageFix" result="shape"/>
<feGaussianBlur stdDeviation="8.95829" result="effect1_foregroundBlur_3548_2964"/>
</filter>
<filter id="filter2_ddi_3548_2964" x="30.7084" y="48.625" width="333.583" height="292.583" filterUnits="userSpaceOnUse" color-interpolation-filters="sRGB">
<feFlood flood-opacity="0" result="BackgroundImageFix"/>
<feColorMatrix in="SourceAlpha" type="matrix" values="0 0 0 0 0 0 0 0 0 0 0 0 0 0 0 0 0 0 127 0" result="hardAlpha"/>
<feOffset dy="11.6458"/>
<feGaussianBlur stdDeviation="4.47914"/>
<feColorMatrix type="matrix" values="0 0 0 0 0.3 0 0 0 0 0 0 0 0 0 0.26 0 0 0 0.7 0"/>
<feBlend mode="multiply" in2="BackgroundImageFix" result="effect1_dropShadow_3548_2964"/>
<feColorMatrix in="SourceAlpha" type="matrix" values="0 0 0 0 0 0 0 0 0 0 0 0 0 0 0 0 0 0 127 0" result="hardAlpha"/>
<feOffset dy="17.9166"/>
<feGaussianBlur stdDeviation="11.6458"/>
<feColorMatrix type="matrix" values="0 0 0 0 0.6 0 0 0 0 0 0 0 0 0 0.6 0 0 0 1 0"/>
<feBlend mode="color-dodge" in2="effect1_dropShadow_3548_2964" result="effect2_dropShadow_3548_2964"/>
<feBlend mode="normal" in="SourceGraphic" in2="effect2_dropShadow_3548_2964" result="shape"/>
<feColorMatrix in="SourceAlpha" type="matrix" values="0 0 0 0 0 0 0 0 0 0 0 0 0 0 0 0 0 0 127 0" result="hardAlpha"/>
<feOffset dx="-1.16458" dy="2.32916"/>
<feGaussianBlur stdDeviation="0.582289"/>
<feComposite in2="hardAlpha" operator="arithmetic" k2="-1" k3="1"/>
<feColorMatrix type="matrix" values="0 0 0 0 1 0 0 0 0 1 0 0 0 0 1 0 0 0 0.5 0"/>
<feBlend mode="normal" in2="shape" result="effect3_innerShadow_3548_2964"/>
</filter>
<filter id="filter3_f_3548_2964" x="52.2083" y="52.2083" width="290.583" height="249.583" filterUnits="userSpaceOnUse" color-interpolation-filters="sRGB">
<feFlood flood-opacity="0" result="BackgroundImageFix"/>
<feBlend mode="normal" in="SourceGraphic" in2="BackgroundImageFix" result="shape"/>
<feGaussianBlur stdDeviation="0.895829" result="effect1_foregroundBlur_3548_2964"/>
</filter>
<filter id="filter4_f_3548_2964" x="52.8056" y="52.8056" width="289.389" height="248.389" filterUnits="userSpaceOnUse" color-interpolation-filters="sRGB">
<feFlood flood-opacity="0" result="BackgroundImageFix"/>
<feBlend mode="normal" in="SourceGraphic" in2="BackgroundImageFix" result="shape"/>
<feGaussianBlur stdDeviation="0.597219" result="effect1_foregroundBlur_3548_2964"/>
</filter>
</defs>
</svg>
