<svg width="84" height="84" viewBox="0 0 84 84" fill="none" xmlns="http://www.w3.org/2000/svg">
<g filter="url(#filter0_d_3573_3003)">
<g filter="url(#filter1_d_3573_3003)">
<circle cx="42" cy="42" r="25" fill="white"/>
</g>
<path d="M41.998 32.3687C39.443 32.3687 36.9928 33.3836 35.1862 35.1902C33.3796 36.9968 32.3646 39.4471 32.3646 42.002C32.3646 44.5569 33.3796 47.0072 35.1862 48.8138C36.9928 50.6204 39.443 51.6353 41.998 51.6353C44.5529 51.6353 47.0032 50.6204 48.8098 48.8138C50.6164 47.0072 51.6313 44.5569 51.6313 42.002C51.6313 39.4471 50.6164 36.9968 48.8098 35.1902C47.0032 33.3836 44.5529 32.3687 41.998 32.3687V32.3687ZM41.998 48.2582C40.3381 48.2582 38.7463 47.5989 37.5726 46.4252C36.399 45.2515 35.7396 43.6597 35.7396 41.9999C35.7396 40.3401 36.399 38.7483 37.5726 37.5746C38.7463 36.4009 40.3381 35.7416 41.998 35.7416C43.6578 35.7416 45.2496 36.4009 46.4233 37.5746C47.5969 38.7483 48.2563 40.3401 48.2563 41.9999C48.2563 43.6597 47.5969 45.2515 46.4233 46.4252C45.2496 47.5989 43.6578 48.2582 41.998 48.2582V48.2582Z" fill="#D6258F"/>
<path d="M52.0126 34.2602C53.2529 34.2602 54.2584 33.2547 54.2584 32.0144C54.2584 30.774 53.2529 29.7686 52.0126 29.7686C50.7722 29.7686 49.7667 30.774 49.7667 32.0144C49.7667 33.2547 50.7722 34.2602 52.0126 34.2602Z" fill="#D6258F"/>
<path d="M59.777 29.7311C59.2947 28.4856 58.5577 27.3546 57.6131 26.4104C56.6685 25.4662 55.5372 24.7296 54.2916 24.2478C52.834 23.7006 51.294 23.4047 49.7374 23.3728C47.7312 23.2853 47.0958 23.2603 42.0083 23.2603C36.9208 23.2603 36.2687 23.2603 34.2791 23.3728C32.7236 23.4031 31.1848 23.699 29.7291 24.2478C28.4831 24.729 27.3515 25.4654 26.4069 26.4097C25.4622 27.354 24.7254 28.4853 24.2437 29.7311C23.6964 31.1886 23.4012 32.7287 23.3708 34.2853C23.2812 36.2894 23.2541 36.9248 23.2541 42.0144C23.2541 47.1019 23.2541 47.7498 23.3708 49.7436C23.402 51.3019 23.6958 52.8394 24.2437 54.2998C24.7268 55.5452 25.4643 56.676 26.4092 57.6202C27.354 58.5644 28.4855 59.301 29.7312 59.7832C31.1842 60.3523 32.7236 60.6694 34.2833 60.7207C36.2895 60.8082 36.9249 60.8353 42.0124 60.8353C47.0999 60.8353 47.752 60.8353 49.7416 60.7207C51.2981 60.689 52.8379 60.3939 54.2958 59.8478C55.5411 59.3648 56.6721 58.6276 57.6165 57.6831C58.561 56.7386 59.2982 55.6077 59.7812 54.3623C60.3291 52.904 60.6228 51.3665 60.6541 49.8082C60.7437 47.804 60.7708 47.1686 60.7708 42.079C60.7708 36.9894 60.7708 36.3436 60.6541 34.3498C60.6298 32.7712 60.3331 31.2087 59.777 29.7311V29.7311ZM57.2395 49.5894C57.2261 50.7901 57.0069 51.9795 56.5916 53.1061C56.2787 53.9162 55.7998 54.6519 55.1855 55.2658C54.5712 55.8797 53.8352 56.3583 53.0249 56.6707C51.9108 57.0841 50.734 57.3033 49.5458 57.3186C47.5666 57.4103 47.0083 57.4332 41.9333 57.4332C36.8541 57.4332 36.3353 57.4332 34.3187 57.3186C33.131 57.3041 31.9548 57.0849 30.8416 56.6707C30.0284 56.3602 29.2895 55.8825 28.6726 55.2685C28.0557 54.6545 27.5746 53.9178 27.2603 53.1061C26.8509 51.9916 26.6318 50.8162 26.6124 49.629C26.5228 47.6498 26.502 47.0915 26.502 42.0165C26.502 36.9394 26.502 36.4207 26.6124 34.4019C26.6259 33.202 26.845 32.0132 27.2603 30.8873C27.8958 29.2436 29.1978 27.9498 30.8416 27.3207C31.9553 26.9085 33.1312 26.6893 34.3187 26.6728C36.2999 26.5832 36.8562 26.5582 41.9333 26.5582C47.0103 26.5582 47.5312 26.5582 49.5458 26.6728C50.7341 26.687 51.9111 26.9062 53.0249 27.3207C53.8352 27.6337 54.5711 28.1128 55.1853 28.727C55.7995 29.3412 56.2785 30.0771 56.5916 30.8873C57.0011 32.0018 57.2201 33.1773 57.2395 34.3644C57.3291 36.3457 57.352 36.9019 57.352 41.979C57.352 47.054 57.352 47.5998 57.2624 49.5915H57.2395V49.5894Z" fill="#D6258F"/>
</g>
<defs>
<filter id="filter0_d_3573_3003" x="13" y="17" width="58" height="58" filterUnits="userSpaceOnUse" color-interpolation-filters="sRGB">
<feFlood flood-opacity="0" result="BackgroundImageFix"/>
<feColorMatrix in="SourceAlpha" type="matrix" values="0 0 0 0 0 0 0 0 0 0 0 0 0 0 0 0 0 0 127 0" result="hardAlpha"/>
<feOffset dy="4"/>
<feGaussianBlur stdDeviation="2"/>
<feComposite in2="hardAlpha" operator="out"/>
<feColorMatrix type="matrix" values="0 0 0 0 0 0 0 0 0 0 0 0 0 0 0 0 0 0 0.25 0"/>
<feBlend mode="normal" in2="BackgroundImageFix" result="effect1_dropShadow_3573_3003"/>
<feBlend mode="normal" in="SourceGraphic" in2="effect1_dropShadow_3573_3003" result="shape"/>
</filter>
<filter id="filter1_d_3573_3003" x="0" y="0" width="84" height="84" filterUnits="userSpaceOnUse" color-interpolation-filters="sRGB">
<feFlood flood-opacity="0" result="BackgroundImageFix"/>
<feColorMatrix in="SourceAlpha" type="matrix" values="0 0 0 0 0 0 0 0 0 0 0 0 0 0 0 0 0 0 127 0" result="hardAlpha"/>
<feMorphology radius="5" operator="dilate" in="SourceAlpha" result="effect1_dropShadow_3573_3003"/>
<feOffset/>
<feGaussianBlur stdDeviation="6"/>
<feColorMatrix type="matrix" values="0 0 0 0 0.764706 0 0 0 0 0.027451 0 0 0 0 0.47451 0 0 0 1 0"/>
<feBlend mode="normal" in2="BackgroundImageFix" result="effect1_dropShadow_3573_3003"/>
<feBlend mode="normal" in="SourceGraphic" in2="effect1_dropShadow_3573_3003" result="shape"/>
</filter>
</defs>
</svg>
